PathFileType	4	(X/Y/Z)	C:/Users/opensim2020/Desktop/walking_exp_matlab/subject03_walking05_straight_04.trc	
DataRate	CameraRate	NumFrames	NumMarkers	Units	OrigDataRate	OrigDataStartFrame	OrigNumFrames	
100.00	100.00	4	45	mm	100.00	2965	294	
Frame#	Time	LFHD			RFHD			LBHD			RBHD			C7			T10			CLAV			STRN			RBAK			LSHO			LUPA			LELB			LFRM			LWRA			LWRB			LFIN			RSHO			RUPA			RELB			RFRM			RWRA			RWRB			RFIN			LASI			RASI			LPSI			RPSI			LTHI			LKNE			LTIB			LANK			LHEE			LTOE			RTHI			RKNE			RTIB			RANK			RHEE			RTOE			*39			*40			*41			*42			*43			*44			
		X1	Y1	Z1	X2	Y2	Z2	X3	Y3	Z3	X4	Y4	Z4	X5	Y5	Z5	X6	Y6	Z6	X7	Y7	Z7	X8	Y8	Z8	X9	Y9	Z9	X10	Y10	Z10	X11	Y11	Z11	X12	Y12	Z12	X13	Y13	Z13	X14	Y14	Z14	X15	Y15	Z15	X16	Y16	Z16	X17	Y17	Z17	X18	Y18	Z18	X19	Y19	Z19	X20	Y20	Z20	X21	Y21	Z21	X22	Y22	Z22	X23	Y23	Z23	X24	Y24	Z24	X25	Y25	Z25	X26	Y26	Z26	X27	Y27	Z27	X28	Y28	Z28	X29	Y29	Z29	X30	Y30	Z30	X31	Y31	Z31	X32	Y32	Z32	X33	Y33	Z33	X34	Y34	Z34	X35	Y35	Z35	X36	Y36	Z36	X37	Y37	Z37	X38	Y38	Z38	X39	Y39	Z39	X40	Y40	Z40	X41	Y41	Z41	X42	Y42	Z42	X43	Y43	Z43	X44	Y44	Z44	X45	Y45	Z45	

111	1.100	1493.78882	582.91510	1611.44275	1362.52490	601.16370	1618.31396	1505.96741	712.46649	1570.37354	1375.48389	724.63550	1576.76550	1438.18909	753.27386	1412.05396	1439.51746	785.29791	1097.52063	1436.44446	631.59613	1334.80640	1437.04321	587.01337	1170.96497	1336.52112	804.63293	1237.51331	1594.13647	679.56702	1368.55139	1656.94495	716.66180	1169.53394	1666.07935	728.96173	1046.43445	1667.86157	724.06989	916.25555	1640.10925	719.16748	796.51001	1685.54028	750.53821	805.57959	1676.17480	749.96735	720.45300	1277.78870	675.09424	1361.40698	1197.22974	635.75470	1145.77344	1183.15820	594.71991	1041.51819	1184.22974	540.44128	916.08746	1224.68506	488.07971	833.72028	1178.04895	511.73044	819.98505	1190.39990	468.78717	760.62531	1545.49121	608.19971	933.89459	1307.95618	630.46539	935.20007	1512.08472	774.60773	951.02759	1363.07605	786.05048	966.12402	1598.34314	602.43866	632.37054	1549.74207	535.87463	470.21036	1552.80969	520.30469	281.13678	1521.52942	458.25848	78.51573	1479.41675	483.51968	33.88765	1502.64380	304.98062	80.15254	1278.74854	726.47461	646.08386	1316.12292	747.17902	467.71494	1320.59631	835.18286	295.06476	1376.22217	907.00897	90.75553	1429.03796	952.88312	66.99492	1387.74365	770.74084	35.90355	1455.89905	670.51459	1677.38306															 
112	1.110	1494.52148	573.48456	1610.66040	1363.26306	591.60529	1617.57715	1506.45276	702.98584	1568.95947	1376.25647	715.06421	1575.59277	1438.68481	743.12756	1410.79309	1440.56677	774.89136	1096.37122	1436.81677	621.33612	1333.73657	1437.12280	576.64160	1169.72717	1337.30859	794.68311	1236.28247	1594.59937	669.12292	1367.49365	1657.36365	707.78809	1168.68628	1666.67590	721.74268	1045.85400	1668.27515	717.99811	915.51227	1640.52747	714.66632	795.28906	1686.08545	745.92004	805.21454	1676.55750	745.99554	719.94147	1278.19385	665.16003	1360.20349	1197.41516	625.83875	1144.79846	1183.26111	584.55017	1040.67664	1184.85754	529.06708	915.81934	1225.87158	475.97638	834.31647	1179.24500	499.31287	820.05060	1191.86011	455.44150	761.41187	1545.51941	597.17499	932.69250	1308.04053	620.88879	934.14233	1513.43677	764.05859	950.10522	1364.41223	776.14514	964.96918	1597.90210	593.55811	630.30774	1547.52576	526.96173	468.41226	1551.85474	507.62677	280.75781	1520.90637	441.14120	78.86183	1479.39722	466.13412	34.14199	1502.58545	287.76669	83.39475	1278.12744	718.80847	645.73218	1315.72375	740.42371	467.26620	1320.27368	830.91260	295.81461	1375.87732	906.12189	92.53609	1429.07092	952.41028	69.81856	1387.61450	770.53687	35.79557																		 
113	1.120	1495.20862	563.99786	1609.89136	1363.98230	582.06744	1616.91675	1506.99805	693.31055	1567.68152	1376.75696	705.31854	1574.36707	1439.23376	732.92035	1409.60962	1441.59180	764.43390	1095.27185	1437.19849	611.05585	1332.75269	1437.23792	566.37897	1168.67847	1338.24768	784.72632	1235.16418	1594.76953	658.19244	1366.27051	1657.83704	698.62103	1167.87830	1666.83594	713.50500	1044.99976	1668.70825	711.40076	914.73962	1641.21838	708.82233	794.88354	1686.31702	740.39362	804.68976	1676.95471	741.40253	719.36017	1278.62036	655.31769	1359.10388	1197.72607	615.87335	1143.85693	1183.51831	574.52728	1039.81641	1185.59253	517.93420	915.45758	1226.71387	463.74692	834.81470	1180.43323	487.28860	820.02478	1193.24414	442.47559	761.88373	1545.52161	586.00031	931.62201	1308.13928	611.18768	933.16156	1514.71814	753.38776	949.37811	1365.77979	766.08972	963.95746	1596.88928	583.71130	628.76086	1546.05310	517.62585	467.02933	1551.15784	495.76801	280.30481	1519.73401	426.40573	78.19794	1478.98560	451.35168	33.40857	1501.90894	273.48914	85.06873	1277.77698	710.89551	645.47821	1315.32739	733.37164	466.91425	1319.80078	826.21234	296.75528	1375.60840	904.95044	94.48764	1428.57336	951.32886	72.50015	1387.43677	770.32098	35.68120	1457.25720	652.03729	1675.25574															 
114	1.130	1495.91919	554.43231	1609.20178	1364.72778	572.48737	1616.32776	1508.11890	683.95868	1566.64575	1377.13110	695.49420	1573.17517	1439.93811	722.72144	1408.58301	1442.54565	753.72870	1094.23022	1437.57385	600.68207	1331.80212	1437.37109	555.72845	1167.87061	1339.20837	774.65057	1234.04211	1595.34595	647.56915	1365.25830	1658.26733	689.01776	1166.98145	1667.25916	705.04944	1044.26379	1669.15979	704.29132	913.98590	1641.73181	702.81226	794.15381	1686.78345	734.47583	804.24414	1677.40259	736.48425	719.05334	1279.07959	645.39624	1358.09766	1198.16516	606.00739	1142.98718	1183.91089	564.61047	1038.96216	1186.38660	507.05164	915.09766	1227.75378	452.10684	835.18646	1181.67847	475.73193	819.90088	1194.59497	430.47272	762.47015	1545.63123	574.52759	930.71619	1308.27563	601.29700	932.20715	1515.83569	741.70111	948.62964	1367.09033	755.89008	962.96387	1595.67017	572.83575	627.80750	1545.16638	507.26300	466.13525	1550.61292	484.82782	279.45541	1519.49500	416.23691	78.03578	1478.37744	440.52689	32.29068	1500.41797	262.35074	84.80117	1277.75098	702.61090	645.22626	1314.88196	726.04791	466.69370	1319.78735	821.82538	297.64996	1375.28638	903.66119	96.96231	1428.54956	950.75946	76.09815	1387.18018	770.06635	35.60979	1457.93750	642.72778	1674.35217															 
